<?xml version="1.0" encoding="utf-8"?>
<!-- Generator: Adobe Illustrator 22.0.1, SVG Export Plug-In . SVG Version: 6.00 Build 0)  -->
<svg version="1.1" id="Layer_1" xmlns="http://www.w3.org/2000/svg" xmlns:xlink="http://www.w3.org/1999/xlink" x="0px" y="0px"
	 viewBox="0 0 100 100" style="enable-background:new 0 0 100 100;" xml:space="preserve">
<style type="text/css">
	.st0{fill:#3F2837;}
</style>
<g id="XMLID_1_">
	<g>
		<path class="st0" d="M100,45.1v12l-38-3.4c-1,0-2.2,0.2-2.9,1c-0.7,0.7-1.2,1.7-1.2,2.9v19.1c0,1.5,1,2.9,2.5,3.4L77,86.8v7.8
			l-26-6.4c-0.2,0-0.5,0-1,0s-0.5,0-1,0l-26,6.4v-7.8l16.7-6.6c1.5-0.5,2.5-2,2.5-3.4V57.6c0-1-0.5-2.2-1.2-2.9c-0.7-0.7-2-1-2.9-1
			L0,57.1v-12l39.2-10.8c1.7-0.5,2.7-2,2.7-3.7v-23c0-4.2,3.4-7.6,7.6-7.6s7.6,3.4,7.6,7.6v23c0,1.7,1.2,3.2,2.9,3.7L100,45.1z"/>
	</g>
</g>
</svg>
