<?xml version="1.0" encoding="utf-8"?>
<!-- Generator: Adobe Illustrator 22.0.1, SVG Export Plug-In . SVG Version: 6.00 Build 0)  -->
<svg version="1.1" id="Layer_1" xmlns="http://www.w3.org/2000/svg" xmlns:xlink="http://www.w3.org/1999/xlink" x="0px" y="0px"
	 viewBox="0 0 100 100" style="enable-background:new 0 0 100 100;" xml:space="preserve">
<style type="text/css">
	.st0{fill:#3F2837;}
</style>
<g>
	<g>
		<path class="st0" d="M50,61c10.2,0,18.5-8.3,18.5-18.5S60.2,24,50,24s-18.5,8.3-18.5,18.5S39.8,61,50,61z M39.9,45.4
			c0-0.3,0.1-0.5,0.3-0.7l7.7-6.5l0.7-7.2c0-0.2,0.1-0.4,0.3-0.6l0.5-0.5c0.4-0.4,1.1-0.4,1.5,0l0.5,0.5c0.1,0.2,0.2,0.4,0.3,0.6
			l0.7,7.2l7.7,6.5c0.2,0.2,0.3,0.4,0.3,0.7v1.4l-8.3-2.9l-0.3,5.6l1.9,2.1c0.1,0.1,0.1,0.2,0.1,0.3v0.6L50,51.3l-3.5,1.2v-0.6
			c0-0.1,0-0.2,0.1-0.3l1.9-2.1l-0.3-5.6l-8.3,2.9V45.4z"/>
	</g>
	<g>
		<path class="st0" d="M50,94.5c0,0,19.7-18.4,26.4-25.2s10.9-16.1,10.9-26.4C87.4,22.2,70.7,5.5,50,5.5S12.6,22.2,12.6,42.9
			c0,10.6,4.4,20.1,11.5,26.9C30.8,76.3,50,94.5,50,94.5z M50,20c12.4,0,22.5,10.1,22.5,22.5S62.4,65,50,65S27.5,54.9,27.5,42.5
			S37.6,20,50,20z"/>
	</g>
</g>
</svg>
