<svg id="Layer_1" data-name="Layer 1" xmlns="http://www.w3.org/2000/svg" viewBox="0 0 456 177.74"><defs><style>.cls-1,.cls-3,.cls-4,.cls-5,.cls-6,.cls-7,.cls-8{fill:none;stroke-miterlimit:10;stroke-width:2px;}.cls-1,.cls-3,.cls-6,.cls-7{stroke:#f5f5f5;}.cls-10,.cls-2{fill:#f5f5f5;}.cls-3{stroke-dasharray:2.01 2.01;}.cls-4,.cls-5,.cls-8{stroke:#b3b3b3;}.cls-5{stroke-dasharray:2 2;}.cls-6{stroke-dasharray:2.01 2.01;}.cls-7{stroke-dasharray:2.01 2.01;}.cls-8{stroke-dasharray:1.92 1.92;}.cls-15,.cls-9{fill:#b3b3b3;}.cls-10,.cls-15{font-size:12px;font-family:Roboto-Regular, Roboto;}.cls-11{letter-spacing:-0.01em;}.cls-12{letter-spacing:-0.01em;}.cls-13{letter-spacing:-0.01em;}.cls-14{letter-spacing:-0.01em;}.cls-16,.cls-17{fill:#a5d390;}.cls-17{font-size:28.45px;font-family:Marydale-Bold, Marydale;font-weight:700;}.cls-18{letter-spacing:0.07em;}.cls-19{letter-spacing:0em;}.cls-20{letter-spacing:-0.02em;}.cls-21{letter-spacing:-0.02em;}</style></defs><title>fullstack_overview</title><line class="cls-1" y1="88.77" x2="445.24" y2="88.77"/><polygon class="cls-2" points="443.05 96.25 456 88.77 443.05 81.29 443.05 96.25"/><line class="cls-1" x1="58" y1="56.77" x2="58" y2="57.77"/><line class="cls-3" x1="58" y1="59.78" x2="58" y2="86.92"/><line class="cls-1" x1="58" y1="87.93" x2="58" y2="88.93"/><line class="cls-4" x1="313.38" y1="40.93" x2="313.38" y2="41.93"/><line class="cls-5" x1="313.38" y1="43.93" x2="313.38" y2="86.93"/><line class="cls-4" x1="313.38" y1="87.93" x2="313.38" y2="88.93"/><line class="cls-1" x1="228.25" y1="24.61" x2="228.25" y2="25.61"/><line class="cls-6" x1="228.25" y1="27.62" x2="228.25" y2="86.92"/><line class="cls-1" x1="228.25" y1="87.93" x2="228.25" y2="88.93"/><line class="cls-1" x1="143.12" y1="40.69" x2="143.12" y2="41.69"/><line class="cls-7" x1="143.12" y1="43.7" x2="143.12" y2="86.92"/><line class="cls-1" x1="143.12" y1="87.93" x2="143.12" y2="88.93"/><line class="cls-4" x1="398.5" y1="50.53" x2="398.5" y2="51.53"/><line class="cls-8" x1="398.5" y1="53.44" x2="398.5" y2="86.97"/><line class="cls-4" x1="398.5" y1="87.93" x2="398.5" y2="88.93"/><circle class="cls-2" cx="57.61" cy="88.89" r="4.28"/><circle class="cls-9" cx="313.28" cy="88.89" r="4.28"/><circle class="cls-2" cx="228.06" cy="88.89" r="4.28"/><circle class="cls-2" cx="142.83" cy="88.89" r="4.28"/><circle class="cls-9" cx="398.5" cy="88.89" r="4.28"/><text class="cls-10" transform="translate(24.33 53.77)">UX Resea<tspan class="cls-11" x="51.09" y="0">r</tspan><tspan x="55.04" y="0">ch</tspan></text><text class="cls-10" transform="translate(117.67 34.77)">UI Design</text><text class="cls-10" transform="translate(192 10.27)"><tspan class="cls-12">F</tspan><tspan class="cls-13" x="6.48" y="0">r</tspan><tspan x="10.42" y="0">ont-End D</tspan><tspan class="cls-14" x="62.17" y="0">e</tspan><tspan x="68.45" y="0">v</tspan></text><text class="cls-15" transform="translate(276.67 25.77)">Back-End D<tspan class="cls-14" x="60.72" y="0">e</tspan><tspan x="67" y="0">v</tspan></text><text class="cls-15" transform="translate(343.67 43.27)">Back-End Databases</text><path id="path3239" class="cls-16" d="M254.27,168.06c.43,5.7.15,7.1.06,7.52a1.72,1.72,0,0,1-.51,1,18.77,18.77,0,0,0-2,2.38,21.25,21.25,0,0,1-9.2,6.43c-6.17,1.92-7.3,2.1-13.52,2.08a58.64,58.64,0,0,1-17.56-2.2c-14.56-4.08-29.44-2.25-36.84.76s-7.06,4.23-13.83,9.05-5,2.71-6.13.32S142,183.5,140.21,181.74c-.91-.88-39.62,8.87-61.67,7.64l-.45,0c-10.76-2.86-11.59-5.34-13.08-10s2-8.78,1.74-9.09a1.43,1.43,0,0,0-1-.56c-.75,0-4.45,3.81-4,4.08.19.1,0,.55-.33,1a6.77,6.77,0,0,0-.57,3.44c.08,2.08.57,3.3,2.38,5.84a26.44,26.44,0,0,0,3.35,4c1.55,1.19,9.19,3,14.15,3.32,7.88.54,26.35-1.75,42.8-5.31,6.35-1.37,12.35-2,15-1.53,2.13.36,2.72.8,6.18,4.6,2.11,2.31,3.85,4.48,3.86,4.82.06.95,4.22,6.59,5.41,7.31,2.18,1.35,3.91.63,7.66-3.16,3-3,3.34-3.33,5.41-4.7a23.41,23.41,0,0,0,2.49-1.86c1.42-1.47,7.89-4.07,13.25-5.34a47.2,47.2,0,0,1,10.91-1.52c4.93-.16,5.56-.08,12.1,1.53,12.45,3.07,15.18,3.46,23.17,3.32,10-.18,14.67-1.2,20.14-4.37,2.93-1.7,4.46-3,5.71-4.77m-.71-2.72a.51.51,0,0,1,0-.74c.2-.13.37.09.36.5s-.15.55-.38.24ZM65.67,184.41c.93.64,1.37.72,1.83.35Z" transform="translate(-18.21 -70.23)"/><text class="cls-17" transform="translate(50.89 161.84)"><tspan class="cls-18">M</tspan><tspan class="cls-19" x="27.05" y="0">y s</tspan><tspan class="cls-20" x="59.4" y="0">w</tspan><tspan x="79.22" y="0">e</tspan><tspan class="cls-21" x="93.05" y="0">e</tspan><tspan x="106.27" y="0">t spot</tspan></text></svg>