<?xml version="1.0" encoding="utf-8"?>
<!-- Generator: Adobe Illustrator 22.0.1, SVG Export Plug-In . SVG Version: 6.00 Build 0)  -->
<svg version="1.1" id="Layer_1" xmlns="http://www.w3.org/2000/svg" xmlns:xlink="http://www.w3.org/1999/xlink" x="0px" y="0px"
	 viewBox="0 0 100 100" style="enable-background:new 0 0 100 100;" xml:space="preserve">
<style type="text/css">
	.st0{fill:#FFFFFF;}
	.st1{fill:#3F2837;}
</style>
<g id="XMLID_1_">
	<g>
		<path class="st0" d="M41,54.3c0,2.6-1.9,4.5-4.5,4.5c-2.6,0-4.5-1.9-4.5-4.5s1.9-4.5,4.5-4.5C39.1,49.8,41,51.7,41,54.3z"/>
		<path class="st0" d="M76.4,65v12.9c0,1.8,0,1.8-3.2,1.8c-3.1,0-3.1,0-3.1-1.8v-5.4H29.6v5.4c0,1.8,0,1.8-3.1,1.8
			c-3.2,0-3.2,0-3.2-1.8V45.5c0-1.8,0-1.8,3.2-1.8c3.1,0,3.1,0,3.1,1.8V65h10.1c1-4.2,4.1-14.1,12.9-14.1h5.2
			C65.5,50.9,76.4,52.3,76.4,65z"/>
		<polygon class="st1" points="80.4,3.3 80.4,24.6 67.1,12 67.1,3.3 		"/>
		<path class="st1" d="M36.5,58.7c2.6,0,4.5-1.9,4.5-4.5s-1.9-4.5-4.5-4.5c-2.6,0-4.5,1.9-4.5,4.5S33.9,58.7,36.5,58.7z M52.5,50.9
			c-8.8,0-11.9,9.9-12.9,14.1H29.6V45.5c0-1.8,0-1.8-3.1-1.8c-3.2,0-3.2,0-3.2,1.8v32.4c0,1.8,0,1.8,3.2,1.8c3.1,0,3.1,0,3.1-1.8
			v-5.4h40.5v5.4c0,1.8,0,1.8,3.1,1.8c3.2,0,3.2,0,3.2-1.8V65c0-12.7-10.9-14.1-18.7-14.1H52.5z M99.6,46.5h-10v43.2
			c0,3.3,0,3.3-3.3,3.3H13.3C10,93,10,93,10,89.7V46.5H0L49.8,0L99.6,46.5z"/>
	</g>
	<g>
	</g>
</g>
</svg>
