<?xml version="1.0" encoding="utf-8"?>
<!-- Generator: Adobe Illustrator 22.0.1, SVG Export Plug-In . SVG Version: 6.00 Build 0)  -->
<svg version="1.1" id="Layer_1" xmlns="http://www.w3.org/2000/svg" xmlns:xlink="http://www.w3.org/1999/xlink" x="0px" y="0px"
	 viewBox="0 0 723.1 288.4" style="enable-background:new 0 0 723.1 288.4;" xml:space="preserve">
<style type="text/css">
	.st0{fill:#546783;}
	.st1{fill:#3F2837;}
</style>
<g>
	<path class="st0" d="M166.2,17c0,9.7-3.1,19.8-9.4,30.4c-6.3,10.6-15,19.8-26,27.6c-11.1,7.8-22.5,12.8-34.3,14.8
		c-6.8,13.7-11.7,23.3-14.7,28.7l-3.5,5.7c22,5.5,40.3,13.7,54.7,24.9c7.3,5.7,12.3,12.6,14.9,20.9c1.3,4.2,2,7.8,2,10.8
		s-0.6,5.5-1.8,7.6c-1.2,2.1-2.5,3.5-4.1,4.3c-1.6,0.8-2.7,1.2-3.3,1.2s-1-0.3-1-0.8c0-0.6,0.6-2.2,1.9-4.9c1.3-2.7,1.9-5.9,1.9-9.6
		c0-3.7-0.8-7.7-2.3-12.2c-1.6-4.5-4.5-8.5-8.7-12.3c-4.2-3.7-10.1-7.2-17.6-10.5c-7.5-3.3-14-5.6-19.5-7c-5.5-1.4-12.9-3-22.1-4.8
		c-9.5,13.2-19.3,22.3-29.5,27.2c-6.1,3-11.5,4.5-16.3,4.5c-4.7,0-8.9-0.9-12.6-2.8c-6.3-3.1-9.5-7.8-9.5-14.2s4.2-11.9,12.5-16.7
		c9.5-5.6,22.2-8.3,38.4-8.3c5.8,0,11,0.4,15.7,1.3c5-7.8,10.8-18.5,17.5-32.2c-0.7,0-1.3,0-1.8,0c-7,0-13.5-1.2-19.5-3.5
		c-6-2.3-10.8-5.5-14.4-9.5c-4.7-5.2-7-11.1-7-17.7c0-3.4,0.9-7.2,2.6-11.2c1.7-4,5.6-8.1,11.5-12.2c6-4.1,13.5-7.2,22.6-9.3
		c1.4-0.3,2.7-0.5,3.7-0.5c1,0,1.6,0.3,1.8,0.8c0.2,0.6-0.2,1.1-1.3,1.5c-1.1,0.4-2.4,0.8-3.8,1c-4.8,0.6-9.2,2.2-13.4,4.8
		c-7.1,4.6-12.1,11.6-14.9,21c-0.7,2.2-1,4.4-1,6.4c0,2.1,0.4,4.5,1.2,7.4c0.8,2.9,2.4,5.9,5,8.9c2.6,3.1,6,5.2,10.4,6.4
		c4.4,1.2,8.2,1.8,11.5,1.8c3.3,0,6.3-0.2,9.1-0.5l14.2-35.7c9.8-25.1,21.5-40.6,35-46.4c3.6-1.4,7-2.2,10.4-2.2
		c3.4,0,6.6,1.1,9.7,3.3c3.1,2.2,4.7,4.8,4.9,7.9C166.1,14.5,166.2,15.8,166.2,17z M66.7,130.7c-5.5-1.2-11.1-1.8-16.9-1.8
		c-5.8,0-11.7,0.8-17.9,2.5c-12.8,3.3-20.3,8.1-22.5,14.2c-0.4,1.1-0.7,2.2-0.7,3.2c0,2.9,1.6,5.3,4.8,7.1c3.2,1.8,6.6,2.8,10.4,2.8
		c5.2,0,10.9-1.4,17-4.3C50.2,149.7,58.8,141.9,66.7,130.7z M159.1,17.2c0-4.2-1.9-6.3-5.8-6.3c-5.7,0-12.6,5-20.7,14.9
		c-6.3,7.9-12.4,17.4-18.3,28.6s-11,21.5-15.6,31c15.5-3.4,29.4-11.9,41.8-25.4C152.9,46.3,159.1,32.1,159.1,17.2z"/>
	<path class="st0" d="M141,140.2c2.1,0,4.3-1.1,6.7-3.2c4.1-4.1,9.3-12.5,15.7-25.2c0.8-1.7,1.6-2.2,2.3-1.5
		c0.2,0.2,0.3,0.6,0.3,1.1c0,0.5-0.4,1.7-1.3,3.7c-0.9,1.9-1.7,3.7-2.4,5.3c-0.7,1.6-2.1,4.1-4.2,7.6c-2.1,3.5-3.9,6.2-5.6,8.1
		c-4.6,5.2-8.9,7.8-12.9,7.8c-4.1,0-7-1.2-8.8-3.7c-1.8-2.4-2.7-5.2-2.7-8.2s0.7-6.3,2.2-9.8L141,94.9c0.2-0.7,0.3-1.6,0.3-2.7
		c0-1.1-0.7-2.6-2-4.3l9.2-0.2c2.6,0,4.1,0.5,4.5,1.4c0.4,0.9,0.1,2.4-1,4.4l-13.4,31.2c-1.9,4.1-2.8,7.6-2.8,10.5
		C135.8,138.6,137.5,140.2,141,140.2z M157.3,78.9c-1.6,1.3-3.3,2-5.2,2c-1.9,0-3.4-0.7-4.5-2c-1.1-1.3-1.6-2.9-1.3-4.8
		c0.3-1.9,1.3-3.5,2.8-4.8c1.6-1.3,3.3-2,5.2-2c1.9,0,3.4,0.7,4.6,2c1.2,1.3,1.6,2.9,1.3,4.8C159.8,76,158.9,77.6,157.3,78.9z"/>
	<path class="st0" d="M205.7,112.2c-3.7,7.1-5.9,12.3-6.6,15.9c-0.7,3.5-1.1,6.3-1.1,8.5c0,2.2,0.8,3.3,2.5,3.3
		c2.1,0,4.7-1.9,7.8-5.8c4.6-5.7,9.1-13.1,13.5-22.2c0.4-1,0.9-1.6,1.5-1.7c0.9-0.3,1.3,0,1.3,1c0,0.6-0.2,1.2-0.5,2
		c-10.2,20.7-18.9,31-25.9,31c-3.2,0-5.8-1.6-7.8-4.7c-1-1.7-1.5-3.9-1.5-6.7c0-2.8,0.6-6.2,1.7-10.2c-8.9,14.4-16.6,21.5-23,21.5
		c-1.8,0-3.4-0.6-4.8-1.7c-3.3-2.3-5-6.3-5-12c0-10.9,4.7-22,14.2-33.2c5.3-6.2,11.9-10.3,19.7-12.2c2.1-0.6,4.1-0.8,6-0.8
		c5.1,0,9.5,1.8,13,5.3c1.1,1.2,1.4,2.4,1,3.5c-0.4,1.1-1.4,1.6-2.8,1.3c-1.2-4-3.9-6-8-6c-4.8,0-10.7,3.8-17.7,11.3
		c-4,4.5-7.7,9.7-11.2,15.7c-4.3,7.2-6.5,13-6.5,17.4s1.4,6.5,4.2,6.5c6.7,0,15.4-10.2,26.2-30.7c2.1-4.1,3.9-6.9,5.3-8.4
		c1.4-1.5,3.3-2.3,5.5-2.3c0.4,0,1.6,0.2,3.4,0.5c1.8,0.3,3.2,0.4,4.1,0.2C212.2,100.6,209.4,105.2,205.7,112.2z"/>
	<path class="st0" d="M311.5,77.4l11.2-0.3c4.7,0,7.8,1,9.3,3c0.8,0.9,1.2,1.8,1.2,2.7c0,0.9-0.3,1.7-0.8,2.3
		c-1.3,1.7-3.8,2.5-7.5,2.5c-6.3,0-12-2.4-16.9-7.3c-12.5,1.9-21.9,8.5-28.4,19.9c-4.1,7.3-6.2,14.5-6.2,21.5
		c0,3.9,0.6,7.7,1.8,11.5c3.7,10.7,11.6,16,23.9,16c10.9,0,20.4-3.7,28.4-11c8-7.3,12-14.6,12-21.9c0-3.4-1.5-6.3-4.4-8.6
		c-2.9-2.3-6.1-3.6-9.3-4c-3.3-0.4-6.1-0.6-8.3-0.6c-2.3,0-5.2,0.3-8.8,0.8c-3.6,0.5-7.2,2-10.8,4.4c-4.2,2.9-6.3,6.7-6.3,11.5
		c0,4.8,3.7,9.1,11.2,13c1.1,0.7,1.6,1.5,1.4,2.6c-0.2,1.1-0.6,1.4-1.4,0.9c-7-3.8-12-8.1-14.9-12.8c-2-3.1-3-5.7-3-7.8
		c0-2.1,0.3-3.8,0.8-5.2c1.3-3.9,4.7-7.2,10-9.8c5.3-2.7,12.1-4,20.4-4h29.5c5.8,0,12.9-1.9,21.4-5.8c4.1-1.9,7.1-4.1,9-6.7
		c0.9-1.3,1.3-2.8,1.3-4.3c0-1.5-0.3-2.8-1-3.9c-0.7-1.1-0.9-1.9-0.8-2.3c0.1-0.4,0.4-0.7,0.9-0.7c0.5,0,0.9,0.3,1.3,0.8
		c1.6,2.7,2.3,5.2,2.3,7.6c0,2.4-0.7,4.6-2.2,6.6c-2.8,4.2-7.5,7.6-14.2,10.2c-6.7,2.6-13.6,3.8-20.7,3.8c-0.2,0-0.5,0-0.8,0
		c4.2,3.4,6.3,7.8,6.3,13.2c0,7.5-4.3,15.1-13,23c-4.1,3.9-9.4,7.1-15.9,9.5c-6.5,2.4-13.2,3.7-20.4,3.7c-17.2,0-29.4-5-36.5-15
		c-3.6-5-5.3-9.8-5.3-14.5c0-4.7,0.7-9,2.2-13c3.9-10.6,11.7-18.7,23.5-24.5c6.8-3.3,14.4-5.4,22.9-6.3c-3.1-4.3-4.6-9.8-4.6-16.4
		c0.1-6.6,2.9-12.7,8.6-18.5c5.7-5.8,12.2-10,19.6-12.6c7.4-2.6,14.6-3.9,21.6-3.9c5.8,0,10.7,1.2,14.8,3.5
		c4.1,2.3,6.1,6.1,6.1,11.2c0,3.2-1,6.1-3,8.6c-2,2.5-4.3,3.8-6.8,3.8c-2.5,0-4.5-0.8-6-2.3c-1.5-1.5-2.3-3.4-2.3-5.6
		c0-2.2,0.8-4.1,2.3-5.5c1.5-1.4,3.3-2.2,5.3-2.2c1.3,0,2.6,0.3,3.8,0.9c1.2,0.6,1.9,1.3,2.2,2.1c0.1-0.7,0.2-1.3,0.2-2
		c0-2.4-1-4.3-3-5.7c-2.1-1.6-5.3-2.3-9.5-2.3c-4.2,0-9.2,1.1-14.9,3.4c-5.7,2.3-11,5.6-16,9.9c-5,4.3-9,9.7-11.8,16
		c-1.6,3.6-2.3,6.7-2.3,9.5C310,72.7,310.5,75.2,311.5,77.4z M330.4,82.6c0-2-4.1-3-12.3-3c-1.7,0-3.4,0.1-5.2,0.2
		c2.7,3.3,6.3,5,10.8,5C328.1,84.8,330.4,84,330.4,82.6z"/>
	<path class="st0" d="M565.6,142.5c-5,5.4-10.8,8.2-17.3,8.2c-6.5,0-12.8-3.1-18.8-9.4c-6-6.3-11-15.3-15-27
		c-4-11.7-6.8-22.1-8.3-31.4c-3.6,7.1-6.3,12.5-8.3,16.3c-2,3.7-5,8.5-8.8,14.3c-3.9,5.8-8,11-12.2,15.7
		c-13.1,14.1-28,21.2-44.6,21.2c-15,0-24.4-4.1-28-12.2c-0.9-1.9-1.3-4.1-1.3-6.6c0-2.5,1.3-5.2,3.8-8.1c4.1-4.6,9.8-6.8,17-6.8
		c4.9,0,10.1,0.9,15.5,2.8c1.4,0.6,2,1.2,1.7,1.8c-0.3,0.7-1.8,0.5-4.3-0.5c-2.6-1-5.6-1.5-9.3-1.5c-3.6,0-6.7,1.4-9.3,4.2
		c-2.6,2.8-3.9,5.7-3.9,8.7c0,1.3,0.3,2.8,0.8,4.3c2.2,5.8,7.5,8.7,15.7,8.7c9.1,0,17.2-2.7,24.2-8.2c4-3.1,7.6-6.3,10.8-9.5
		c3.2-3.2,6.7-7.6,10.3-13c5.8-8.3,10.7-16.1,14.8-23.3c4.1-7.2,8.5-15,13.2-23.5c4.7-8.5,8.2-14.7,10.4-18.6
		c7.1-12.1,13.6-21.4,19.5-27.9c-6.2-0.6-12.5-0.8-18.7-0.8c-14.2,0-28.4,1.5-42.5,4.4c-14.1,2.9-25.2,7.8-33.5,14.6
		c-10.3,8.6-15.5,17.7-15.5,27.4c0,4.7,1.7,8.8,5,12.4c3.3,3.6,7.8,5.4,13.5,5.4c6.9,0,12.6-2.4,17.2-7.3c4.6-4.9,7-8.8,7.2-11.7
		c0.1-1.4,0.4-2.2,1-2.2c0.9,0,1.3,0.8,1.2,2.5c-0.8,5.3-2.9,9.8-6.5,13.5c-6.2,6.5-13.7,9.7-22.4,9.7c-6.6,0-12.3-2.2-17.1-6.7
		c-4.8-4.4-7.3-10.4-7.3-17.9c0-11,5.4-20.9,16.1-29.6c10.7-8.7,24.8-14.4,42.3-16.9c12.5-1.8,23.9-2.7,34.5-2.7
		c10.5,0,20.2,0.6,29.1,1.8c2.9-3.1,4.9-4.7,6-4.7c0.7,0,1,0.5,1,1.6c0,1.1-0.3,2.4-0.8,3.9c8.2,1.3,13.7,2.4,16.5,3.2
		c16.7,4.9,25,12.5,25,22.7c0,6.6-4.1,13.1-12.2,19.5c-10.2,7.9-23.9,13.2-41.1,16c-4.9,0.8-10,1.3-15.4,1.5
		c3.6,19.7,9.7,36.3,18.5,49.7c3,4.6,5.8,7.9,8.3,9.9c2.5,2.1,5.2,3.1,8.1,3.1c4,0,8.3-2.2,12.8-6.7c4.5-4.4,9.7-12.6,15.6-24.4
		c0.9-1.7,1.8-2.5,2.7-2.5c0.9,0,0.9,0.8,0.2,2.5C576.4,127.1,570.6,137.1,565.6,142.5z M573.3,41.4c0-0.9-0.1-1.8-0.3-2.7
		c-1.2-6.2-6.2-10.7-14.9-13.4c-2.7-0.8-8.1-1.8-16.4-3.2c-2,3.4-6.9,11.5-14.7,24.2c-7.8,12.7-13.6,22.8-17.4,30.2
		c2.4-0.4,6-0.9,10.8-1.3c4.7-0.4,8.1-0.7,10.3-0.9c12.7-1.6,23.5-6.5,32.4-14.9C569.9,53.3,573.3,47.3,573.3,41.4z"/>
	<path class="st0" d="M586.8,140.2c2.1,0,4.3-1.1,6.7-3.2c4.1-4.1,9.3-12.5,15.7-25.2c0.8-1.7,1.6-2.2,2.3-1.5
		c0.2,0.2,0.3,0.6,0.3,1.1c0,0.5-0.4,1.7-1.3,3.7c-0.9,1.9-1.7,3.7-2.4,5.3c-0.7,1.6-2.1,4.1-4.2,7.6c-2.1,3.5-3.9,6.2-5.6,8.1
		c-4.6,5.2-8.9,7.8-12.9,7.8c-4.1,0-7-1.2-8.8-3.7c-1.8-2.4-2.7-5.2-2.7-8.2s0.7-6.3,2.2-9.8l10.7-27.2c0.2-0.7,0.3-1.6,0.3-2.7
		c0-1.1-0.7-2.6-2-4.3l9.2-0.2c2.6,0,4.1,0.5,4.5,1.4c0.4,0.9,0.1,2.4-1,4.4l-13.4,31.2c-1.9,4.1-2.8,7.6-2.8,10.5
		C581.7,138.6,583.4,140.2,586.8,140.2z M603.2,78.9c-1.6,1.3-3.3,2-5.2,2c-1.9,0-3.4-0.7-4.5-2c-1.1-1.3-1.6-2.9-1.3-4.8
		c0.3-1.9,1.3-3.5,2.8-4.8c1.6-1.3,3.3-2,5.2-2c1.9,0,3.4,0.7,4.6,2s1.6,2.9,1.3,4.8C605.7,76,604.7,77.6,603.2,78.9z"/>
	<path class="st0" d="M640.1,105.5c3.9-4.7,5.8-8.6,5.8-11.8c0-3.2-1.3-4.8-4-4.8c-5.2,0-11.2,4.8-17.9,14.4c-2.1,3-4.2,7-6.2,11.8
		c-2,4.9-3,9.3-3,13.3c0,4,0.8,7.1,2.4,9.6c1.6,2.4,4.1,3.7,7.5,3.7c3.4,0,6.5-0.8,9.4-2.4c2.9-1.6,5.6-4.2,8.3-7.7
		c2.6-3.5,4.6-6.4,5.9-8.8c1.3-2.3,3.2-5.8,5.5-10.5c0.8-1.6,1.4-2.2,2-1.9c0.6,0.3,0.8,0.7,0.8,1.2c0,0.5-0.8,2.3-2.3,5.5
		c-1.5,3.2-3,6.1-4.5,8.9c-1.5,2.8-3.6,5.9-6.4,9.3c-5,6.2-11.8,9.3-20.5,9.3c-6.2,0-10.7-1.5-13.4-4.6c-2.7-3.1-4.1-6.6-4.1-10.6
		c0-4.9,1.2-10.2,3.6-16c2.4-5.8,5.1-10.8,8.3-15c6.5-8.8,13.9-13.2,22.4-13.2c4.1,0,7.1,1,8.9,2.9c1.8,1.9,2.8,4.2,2.8,6.8
		c0,3.8-1.6,7-4.7,9.7c-1.6,1.4-2.9,2.2-3.9,2.2C641.8,106.6,640.8,106.2,640.1,105.5z"/>
	<path class="st0" d="M695.8,98.8c0-3-1.5-4.5-4.5-4.5c-4.5,0-9.6,2.5-15.4,7.6c-5.8,5.1-10.7,10.4-14.6,15.9
		c-1.7,3.2-3,7.3-4.1,12.2c-1.1,4.9-1.6,8.3-1.6,10.2c0,1.9,0.3,3.1,1,3.7h-10.5c-1.7,0-2.1-1.5-1.3-4.4c0.8-2.9,2-6.1,3.4-9.6
		c1.4-3.4,3.3-7.4,5.4-11.9c2.2-4.5,3.8-7.9,4.8-10.3c-9.1,17.2-15,27.1-17.7,29.7c-1.1,1-1.7,0.7-1.7-1c0-0.3,0.1-0.7,0.3-1.2
		c3.9-5.1,11.7-19,23.3-41.7c11.6-22.7,19.8-37.5,24.4-44.6c3.8-5.4,7.5-8.2,11-8.2h0.2h0.8c0.1,0,1.1,0.2,2.9,0.5
		c1.8,0.3,3.2,0.4,4.1,0.2c-4.1,3.1-9.8,10.3-17,21.4c-7.2,11.2-13,21-17.2,29.4c-4.2,8.4-7.1,14.8-8.5,19.1
		c10.1-12.6,19.2-20.4,27.2-23.4c3.8-1.2,6.8-1.8,9-1.8c4.9,0,7.3,2.1,7.3,6.2c0,1.3-0.3,2.8-0.8,4.5c-1.6,4.2-4.8,8-9.6,11.4
		c-4.8,3.4-10.2,5.4-15.9,5.9c-1.3,3.1-2,6-2,8.6c0,2.6,0.3,5,0.8,7.1c1.3,5.3,3.8,8.6,7.5,9.8c0.8,0.2,1.6,0.3,2.3,0.3
		c3.1,0,6.8-1.9,11-5.8c3.4-3.8,8-11.4,13.5-22.9c0.8-1.4,1.4-1.9,1.8-1.4c0.4,0.5,0.7,1,0.7,1.4c0,0.4-0.8,2.6-2.5,6.5
		c-1.7,3.9-4,8.2-7,12.8c-6.3,9.6-13.3,14.4-21,14.4c-4.7,0-8.3-1.3-10.8-4c-3.7-3.8-5.5-8.7-5.5-14.9c0-3.1,0.8-6.3,2.5-9.5
		c1.7-3.2,3.6-4.9,5.8-5.2c0.3,0,0.7,0,1,0c3.9,0,7.7-1.5,11.4-4.5C693.9,104,695.8,101.2,695.8,98.8z"/>
</g>
<g>
	<path class="st1" d="M180.6,207.5c-1.5,0-2.9-0.3-4.2-0.8c-1.3-0.5-2.5-1.2-3.5-2.1c-1-0.9-1.7-2-2.3-3.2c-0.5-1.2-0.8-2.6-0.8-4
		c0-1.4,0.3-2.7,1-3.9c0.7-1.2,1.6-2.2,2.8-3c1.2-0.9,2.6-1.5,4.3-2c1.7-0.5,3.5-0.7,5.5-0.7c1.8,0,3.5,0.2,5.3,0.5
		c1.8,0.3,3.4,0.7,4.8,1.3v-3.2c0-3.1-0.9-5.6-2.6-7.4c-1.8-1.8-4.1-2.7-7.2-2.7c-1.6,0-3.3,0.3-5.1,1c-1.8,0.7-3.6,1.6-5.4,2.9
		l-1.3-2.1c4.2-2.8,8.2-4.3,11.9-4.3c3.9,0,7,1.1,9.3,3.4c2.3,2.3,3.4,5.4,3.4,9.5v16c0,1,0.4,1.6,1.3,1.6v2.8
		c-0.2,0-0.4,0.1-0.6,0.1s-0.4,0-0.5,0c-0.8,0-1.4-0.3-2.1-0.8c-0.6-0.5-0.9-1.2-0.9-2v-2.7c-1.5,2-3.4,3.5-5.7,4.5
		C185.8,207,183.3,207.5,180.6,207.5z M181.2,205c2.4,0,4.7-0.4,6.7-1.4c2.1-0.9,3.6-2.1,4.6-3.7c0.7-0.8,1.1-1.7,1.1-2.5v-5.8
		c-3.2-1.2-6.4-1.8-9.8-1.8c-3.3,0-5.9,0.7-7.9,2c-2,1.3-3,3.1-3,5.3c0,1.1,0.2,2.1,0.6,3.1c0.4,1,1,1.8,1.8,2.5
		c0.8,0.7,1.6,1.2,2.7,1.6C178.9,204.8,180,205,181.2,205z"/>
	<path class="st1" d="M221.8,177c-3,0.1-5.5,1-7.7,2.6c-2.2,1.7-3.7,3.9-4.6,6.8v20.4h-3.1v-32.7h3v8c1.1-2.3,2.6-4.2,4.5-5.6
		c1.9-1.4,3.9-2.3,6-2.5c0.4,0,0.8,0,1.1,0c0.3,0,0.6,0,0.9,0V177z"/>
	<path class="st1" d="M241.7,207.5c-2.3,0-4.4-0.5-6.4-1.4c-2-0.9-3.7-2.1-5.1-3.7c-1.4-1.6-2.6-3.4-3.4-5.4
		c-0.8-2.1-1.2-4.2-1.2-6.6c0-2.3,0.4-4.5,1.2-6.5c0.8-2,1.9-3.8,3.4-5.3c1.4-1.5,3.1-2.7,5.1-3.6c2-0.9,4.1-1.3,6.3-1.3
		c2.3,0,4.4,0.5,6.4,1.4c1.9,0.9,3.6,2.1,5.1,3.6c1.4,1.5,2.5,3.3,3.4,5.3c0.8,2,1.2,4.2,1.2,6.4c0,0.2,0,0.5,0,0.8
		c0,0.3,0,0.5,0,0.6h-28.7c0.1,1.9,0.6,3.6,1.3,5.2c0.8,1.6,1.7,3,2.9,4.2c1.2,1.2,2.5,2.1,4,2.8c1.5,0.7,3.1,1,4.8,1
		c1.1,0,2.3-0.2,3.4-0.5c1.1-0.3,2.1-0.7,3.1-1.3c0.9-0.5,1.8-1.2,2.5-2c0.7-0.8,1.3-1.6,1.7-2.5l2.8,0.8c-0.5,1.2-1.2,2.3-2.1,3.2
		c-0.9,1-1.9,1.8-3.1,2.5c-1.2,0.7-2.5,1.3-3.9,1.7C244.7,207.3,243.2,207.5,241.7,207.5z M254.5,189.3c-0.1-1.9-0.6-3.7-1.3-5.3
		c-0.7-1.6-1.7-3-2.8-4.1c-1.2-1.2-2.5-2.1-4-2.7c-1.5-0.6-3.1-1-4.8-1c-1.7,0-3.3,0.3-4.8,1c-1.5,0.6-2.8,1.5-4,2.7
		c-1.2,1.2-2.1,2.5-2.8,4.1c-0.7,1.6-1.1,3.4-1.2,5.2H254.5z"/>
	<path class="st1" d="M294.1,207.4c-2.3,0-4.3-0.5-6.2-1.4c-1.9-0.9-3.5-2.2-4.9-3.8s-2.4-3.4-3.2-5.4c-0.8-2-1.1-4.1-1.1-6.2
		c0-2.2,0.4-4.4,1.1-6.4c0.7-2.1,1.8-3.9,3.1-5.4c1.3-1.6,2.9-2.8,4.8-3.7c1.9-0.9,3.9-1.4,6.1-1.4c2.8,0,5.3,0.7,7.4,2.2
		c2.1,1.5,3.9,3.3,5.4,5.4v-7.1h2.8v33.3c0,2.2-0.4,4.2-1.3,5.8c-0.8,1.7-2,3.1-3.4,4.2c-1.4,1.1-3,1.9-4.9,2.5
		c-1.9,0.6-3.8,0.8-5.9,0.8c-1.9,0-3.6-0.2-5.1-0.5c-1.5-0.4-2.8-0.9-4-1.5c-1.2-0.6-2.2-1.4-3.1-2.4c-0.9-0.9-1.7-2-2.4-3.1
		l2.1-1.4c1.3,2.2,3.1,3.8,5.3,4.9c2.2,1,4.6,1.5,7.1,1.5c1.7,0,3.3-0.2,4.7-0.7c1.5-0.5,2.8-1.1,3.9-2c1.1-0.9,2-2,2.6-3.4
		c0.6-1.3,1-2.9,1-4.7v-7.2c-1.3,2.1-3.1,3.8-5.3,5.1C298.8,206.7,296.5,207.4,294.1,207.4z M294.9,204.7c1.4,0,2.7-0.3,4-0.8
		c1.3-0.5,2.5-1.2,3.5-2c1.1-0.8,2-1.8,2.7-2.8c0.7-1,1.1-2.1,1.3-3.1v-10.7c-0.5-1.3-1.2-2.4-2-3.5c-0.8-1.1-1.8-2-2.9-2.7
		c-1.1-0.8-2.2-1.4-3.5-1.8c-1.2-0.4-2.5-0.7-3.7-0.7c-2,0-3.7,0.4-5.3,1.3c-1.5,0.8-2.9,1.9-3.9,3.3c-1.1,1.3-1.9,2.9-2.4,4.6
		c-0.6,1.7-0.8,3.4-0.8,5.1c0,1.9,0.3,3.7,1,5.3c0.7,1.7,1.6,3.2,2.8,4.5c1.2,1.3,2.6,2.3,4.1,3.1
		C291.3,204.3,293,204.7,294.9,204.7z"/>
	<path class="st1" d="M333.1,207.5c-2.3,0-4.4-0.5-6.4-1.4c-2-0.9-3.7-2.1-5.1-3.7c-1.4-1.6-2.6-3.4-3.4-5.4
		c-0.8-2.1-1.2-4.2-1.2-6.6c0-2.3,0.4-4.5,1.2-6.5c0.8-2,1.9-3.8,3.4-5.3c1.4-1.5,3.1-2.7,5.1-3.6c2-0.9,4.1-1.3,6.3-1.3
		c2.3,0,4.4,0.5,6.4,1.4c1.9,0.9,3.6,2.1,5.1,3.6c1.4,1.5,2.5,3.3,3.4,5.3c0.8,2,1.2,4.2,1.2,6.4c0,0.2,0,0.5,0,0.8
		c0,0.3,0,0.5,0,0.6h-28.7c0.1,1.9,0.6,3.6,1.3,5.2c0.8,1.6,1.7,3,2.9,4.2c1.2,1.2,2.5,2.1,4,2.8c1.5,0.7,3.1,1,4.8,1
		c1.1,0,2.3-0.2,3.4-0.5c1.1-0.3,2.1-0.7,3.1-1.3c0.9-0.5,1.8-1.2,2.5-2c0.7-0.8,1.3-1.6,1.7-2.5l2.8,0.8c-0.5,1.2-1.2,2.3-2.1,3.2
		c-0.9,1-1.9,1.8-3.1,2.5c-1.2,0.7-2.5,1.3-3.9,1.7C336.1,207.3,334.6,207.5,333.1,207.5z M345.9,189.3c-0.1-1.9-0.6-3.7-1.3-5.3
		c-0.7-1.6-1.7-3-2.8-4.1c-1.2-1.2-2.5-2.1-4-2.7c-1.5-0.6-3.1-1-4.8-1c-1.7,0-3.3,0.3-4.8,1c-1.5,0.6-2.8,1.5-4,2.7
		c-1.2,1.2-2.1,2.5-2.8,4.1c-0.7,1.6-1.1,3.4-1.2,5.2H345.9z"/>
	<path class="st1" d="M370.3,205.3c-0.2,0.1-0.4,0.2-0.8,0.5c-0.4,0.2-0.9,0.5-1.5,0.7c-0.6,0.2-1.3,0.4-2,0.6
		c-0.8,0.2-1.6,0.3-2.4,0.3c-0.9,0-1.7-0.1-2.5-0.4c-0.8-0.3-1.5-0.6-2-1.1c-0.6-0.5-1.1-1.1-1.4-1.8c-0.4-0.7-0.5-1.5-0.5-2.5
		v-24.6h-4.6v-2.6h4.6V163h3.1v11.2h7.7v2.6h-7.7v23.9c0,1.2,0.4,2.1,1.3,2.7c0.8,0.6,1.8,0.9,2.9,0.9c1.3,0,2.4-0.2,3.4-0.7
		c0.9-0.4,1.5-0.7,1.7-0.8L370.3,205.3z"/>
	<path class="st1" d="M390.2,205.3c-0.2,0.1-0.5,0.2-0.8,0.5c-0.4,0.2-0.9,0.5-1.5,0.7c-0.6,0.2-1.3,0.4-2,0.6
		c-0.8,0.2-1.6,0.3-2.4,0.3c-0.9,0-1.7-0.1-2.5-0.4c-0.8-0.3-1.5-0.6-2-1.1c-0.6-0.5-1.1-1.1-1.4-1.8c-0.4-0.7-0.5-1.5-0.5-2.5
		v-24.6h-4.6v-2.6h4.6V163h3.1v11.2h7.7v2.6H380v23.9c0,1.2,0.4,2.1,1.3,2.7c0.8,0.6,1.8,0.9,2.9,0.9c1.3,0,2.4-0.2,3.4-0.7
		c0.9-0.4,1.5-0.7,1.7-0.8L390.2,205.3z"/>
	<path class="st1" d="M395.4,166.8V161h3.1v5.8H395.4z M395.4,206.9v-32.7h3.1v32.7H395.4z"/>
	<path class="st1" d="M434.9,206.9h-3.1v-18.2c0-4.2-0.6-7.3-1.8-9.2c-1.2-1.9-3.1-2.9-5.7-2.9c-1.4,0-2.8,0.3-4.1,0.8
		c-1.4,0.5-2.6,1.2-3.8,2.1c-1.2,0.9-2.2,2-3,3.2c-0.9,1.2-1.5,2.6-1.9,4v20.2h-3.1v-32.7h2.9v7.8c0.7-1.3,1.5-2.4,2.5-3.4
		c1-1,2.1-1.9,3.3-2.6c1.2-0.7,2.5-1.3,3.9-1.7c1.4-0.4,2.8-0.6,4.3-0.6c3.6,0,6.1,1.2,7.5,3.7c1.5,2.5,2.2,6.1,2.2,10.7V206.9z"/>
	<path class="st1" d="M457.6,207.4c-2.3,0-4.3-0.5-6.2-1.4c-1.9-0.9-3.5-2.2-4.9-3.8s-2.4-3.4-3.2-5.4s-1.1-4.1-1.1-6.2
		c0-2.2,0.4-4.4,1.1-6.4c0.7-2.1,1.8-3.9,3.1-5.4c1.3-1.6,2.9-2.8,4.8-3.7c1.9-0.9,3.9-1.4,6.1-1.4c2.8,0,5.3,0.7,7.4,2.2
		c2.1,1.5,3.9,3.3,5.4,5.4v-7.1h2.8v33.3c0,2.2-0.4,4.2-1.3,5.8c-0.8,1.7-2,3.1-3.4,4.2c-1.4,1.1-3,1.9-4.9,2.5
		c-1.9,0.6-3.8,0.8-5.9,0.8c-1.9,0-3.6-0.2-5.1-0.5c-1.5-0.4-2.8-0.9-4-1.5c-1.2-0.6-2.2-1.4-3.1-2.4c-0.9-0.9-1.7-2-2.4-3.1
		l2.1-1.4c1.3,2.2,3.1,3.8,5.3,4.9c2.2,1,4.6,1.5,7.1,1.5c1.7,0,3.3-0.2,4.7-0.7c1.5-0.5,2.8-1.1,3.9-2c1.1-0.9,2-2,2.6-3.4
		c0.6-1.3,1-2.9,1-4.7v-7.2c-1.3,2.1-3.1,3.8-5.3,5.1C462.2,206.7,459.9,207.4,457.6,207.4z M458.3,204.7c1.4,0,2.7-0.3,4-0.8
		c1.3-0.5,2.5-1.2,3.5-2c1.1-0.8,2-1.8,2.7-2.8c0.7-1,1.1-2.1,1.3-3.1v-10.7c-0.5-1.3-1.2-2.4-2-3.5c-0.8-1.1-1.8-2-2.9-2.7
		c-1.1-0.8-2.2-1.4-3.5-1.8c-1.2-0.4-2.5-0.7-3.7-0.7c-2,0-3.7,0.4-5.3,1.3c-1.5,0.8-2.9,1.9-3.9,3.3c-1.1,1.3-1.9,2.9-2.4,4.6
		s-0.8,3.4-0.8,5.1c0,1.9,0.3,3.7,1,5.3c0.7,1.7,1.6,3.2,2.8,4.5c1.2,1.3,2.6,2.3,4.1,3.1C454.8,204.3,456.5,204.7,458.3,204.7z"/>
	<path class="st1" d="M547,206.9h-3.1v-18.2c0-4.1-0.6-7.2-1.9-9.2c-1.3-2-3.2-3-5.9-3c-1.4,0-2.7,0.3-3.9,0.8
		c-1.2,0.5-2.3,1.2-3.3,2.1c-1,0.9-1.8,2-2.6,3.2c-0.7,1.2-1.3,2.6-1.7,4.1v20.2h-3.1v-18.2c0-4.2-0.6-7.3-1.9-9.2
		c-1.3-1.9-3.2-2.9-5.8-2.9c-1.3,0-2.6,0.2-3.8,0.7c-1.2,0.5-2.3,1.2-3.3,2.1c-1,0.9-1.9,2-2.6,3.2c-0.8,1.2-1.3,2.6-1.8,4.1v20.2
		H499v-32.7h2.9v7.8c1.4-2.6,3.2-4.7,5.3-6.2c2.2-1.5,4.6-2.2,7.2-2.2c2.8,0,5,0.8,6.7,2.4c1.7,1.6,2.7,3.8,3,6.4
		c3.2-5.9,7.5-8.9,12.8-8.9c3.6,0,6.2,1.3,7.7,3.8c1.5,2.5,2.3,6.1,2.3,10.6V206.9z"/>
	<path class="st1" d="M564.4,207.5c-1.5,0-2.9-0.3-4.2-0.8c-1.3-0.5-2.5-1.2-3.5-2.1c-1-0.9-1.7-2-2.3-3.2c-0.5-1.2-0.8-2.6-0.8-4
		c0-1.4,0.3-2.7,1-3.9c0.7-1.2,1.6-2.2,2.8-3c1.2-0.9,2.6-1.5,4.3-2c1.7-0.5,3.5-0.7,5.5-0.7c1.8,0,3.5,0.2,5.3,0.5
		c1.8,0.3,3.4,0.7,4.8,1.3v-3.2c0-3.1-0.9-5.6-2.6-7.4c-1.8-1.8-4.1-2.7-7.2-2.7c-1.6,0-3.3,0.3-5.1,1c-1.8,0.7-3.6,1.6-5.4,2.9
		l-1.3-2.1c4.2-2.8,8.2-4.3,11.9-4.3c3.9,0,7,1.1,9.3,3.4c2.3,2.3,3.4,5.4,3.4,9.5v16c0,1,0.4,1.6,1.3,1.6v2.8
		c-0.2,0-0.4,0.1-0.6,0.1s-0.4,0-0.5,0c-0.8,0-1.4-0.3-2.1-0.8c-0.6-0.5-0.9-1.2-0.9-2v-2.7c-1.5,2-3.4,3.5-5.7,4.5
		C569.6,207,567.1,207.5,564.4,207.5z M565,205c2.4,0,4.7-0.4,6.7-1.4c2.1-0.9,3.6-2.1,4.6-3.7c0.7-0.8,1.1-1.7,1.1-2.5v-5.8
		c-3.2-1.2-6.4-1.8-9.8-1.8c-3.3,0-5.9,0.7-7.9,2c-2,1.3-3,3.1-3,5.3c0,1.1,0.2,2.1,0.6,3.1c0.4,1,1,1.8,1.8,2.5s1.6,1.2,2.7,1.6
		C562.8,204.8,563.8,205,565,205z"/>
	<path class="st1" d="M605.6,177c-3,0.1-5.5,1-7.7,2.6c-2.2,1.7-3.7,3.9-4.6,6.8v20.4h-3.1v-32.7h3v8c1.1-2.3,2.6-4.2,4.5-5.6
		c1.9-1.4,3.9-2.3,6-2.5c0.4,0,0.8,0,1.1,0c0.3,0,0.6,0,0.9,0V177z"/>
	<path class="st1" d="M627,177c-3,0.1-5.5,1-7.7,2.6c-2.2,1.7-3.7,3.9-4.6,6.8v20.4h-3.1v-32.7h3v8c1.1-2.3,2.6-4.2,4.5-5.6
		c1.9-1.4,3.9-2.3,6-2.5c0.4,0,0.8,0,1.1,0c0.3,0,0.6,0,0.9,0V177z"/>
	<path class="st1" d="M633,166.8V161h3.1v5.8H633z M633,206.9v-32.7h3.1v32.7H633z"/>
	<path class="st1" d="M659.7,207.5c-2.3,0-4.4-0.5-6.4-1.4c-2-0.9-3.7-2.1-5.1-3.7c-1.4-1.6-2.6-3.4-3.4-5.4
		c-0.8-2.1-1.2-4.2-1.2-6.6c0-2.3,0.4-4.5,1.2-6.5c0.8-2,1.9-3.8,3.4-5.3c1.4-1.5,3.1-2.7,5.1-3.6c2-0.9,4.1-1.3,6.3-1.3
		c2.3,0,4.4,0.5,6.4,1.4c1.9,0.9,3.6,2.1,5.1,3.6c1.4,1.5,2.5,3.3,3.4,5.3c0.8,2,1.2,4.2,1.2,6.4c0,0.2,0,0.5,0,0.8
		c0,0.3,0,0.5,0,0.6h-28.7c0.1,1.9,0.6,3.6,1.3,5.2c0.8,1.6,1.7,3,2.9,4.2c1.2,1.2,2.5,2.1,4,2.8c1.5,0.7,3.1,1,4.8,1
		c1.1,0,2.2-0.2,3.4-0.5c1.1-0.3,2.1-0.7,3.1-1.3c0.9-0.5,1.8-1.2,2.5-2c0.7-0.8,1.3-1.6,1.7-2.5l2.8,0.8c-0.5,1.2-1.2,2.3-2.1,3.2
		c-0.9,1-1.9,1.8-3.1,2.5c-1.2,0.7-2.5,1.3-3.9,1.7C662.7,207.3,661.2,207.5,659.7,207.5z M672.5,189.3c-0.1-1.9-0.6-3.7-1.3-5.3
		c-0.7-1.6-1.7-3-2.8-4.1c-1.2-1.2-2.5-2.1-4-2.7c-1.5-0.6-3.1-1-4.8-1c-1.7,0-3.3,0.3-4.8,1c-1.5,0.6-2.8,1.5-4,2.7
		c-1.2,1.2-2.1,2.5-2.8,4.1c-0.7,1.6-1.1,3.4-1.2,5.2H672.5z"/>
	<path class="st1" d="M696,207.5c-2.3,0-4.4-0.5-6.3-1.4c-1.9-0.9-3.6-2.2-5-3.8c-1.4-1.6-2.5-3.4-3.3-5.4c-0.8-2-1.2-4.1-1.2-6.3
		c0-2.3,0.4-4.4,1.1-6.5c0.8-2.1,1.8-3.9,3.1-5.4c1.3-1.5,2.9-2.8,4.7-3.7c1.8-0.9,3.8-1.4,6-1.4c1.4,0,2.8,0.2,4.1,0.6
		c1.3,0.4,2.5,1,3.5,1.7s2,1.5,2.9,2.4c0.9,0.9,1.6,1.9,2.3,3V161h3.1v41.5c0,1,0.4,1.6,1.3,1.6v2.8c-0.2,0-0.4,0.1-0.6,0.1
		c-0.2,0-0.3,0-0.5,0c-0.9,0-1.7-0.3-2.2-0.9c-0.6-0.6-0.8-1.2-0.8-1.9v-3.8c-1.3,2.2-3.1,3.9-5.4,5.2
		C700.7,206.8,698.4,207.5,696,207.5z M696.5,204.7c1.1,0,2.3-0.2,3.6-0.7c1.3-0.5,2.5-1.1,3.6-1.9c1.1-0.8,2.1-1.7,2.9-2.8
		c0.8-1,1.2-2.2,1.4-3.4v-10.7c-0.5-1.2-1.1-2.3-2-3.4c-0.9-1.1-1.8-2-2.9-2.8c-1.1-0.8-2.3-1.4-3.5-1.9c-1.3-0.5-2.5-0.7-3.6-0.7
		c-1.9,0-3.6,0.4-5.1,1.2c-1.5,0.8-2.8,1.9-4,3.2c-1.1,1.3-2,2.8-2.5,4.5c-0.6,1.7-0.9,3.4-0.9,5.2c0,1.9,0.3,3.7,1,5.3
		c0.7,1.7,1.6,3.2,2.8,4.5c1.2,1.3,2.6,2.3,4.1,3.1C693,204.3,694.7,204.7,696.5,204.7z"/>
</g>
<g>
	<path class="st1" d="M382.9,257.5c0,2.8-0.4,5.3-1.2,7.6c-0.8,2.3-1.9,4.3-3.3,6s-3,3-4.9,4c-1.9,0.9-4,1.4-6.2,1.4
		s-4.3-0.5-6.2-1.4c-1.9-0.9-3.6-2.3-5-4c-1.4-1.7-2.5-3.7-3.3-6c-0.8-2.3-1.2-4.9-1.2-7.6s0.4-5.3,1.2-7.6c0.8-2.3,1.9-4.3,3.3-6
		c1.4-1.7,3.1-3,5-4c1.9-1,4-1.4,6.2-1.4s4.3,0.5,6.2,1.4c1.9,1,3.5,2.3,4.9,4s2.5,3.7,3.3,6C382.5,252.2,382.9,254.7,382.9,257.5z
		 M379.7,257.5c0-2.4-0.3-4.6-0.9-6.6c-0.6-2-1.5-3.7-2.5-5.1c-1.1-1.4-2.4-2.5-3.9-3.3c-1.5-0.8-3.2-1.2-5.1-1.2
		c-1.8,0-3.5,0.4-5.1,1.2c-1.5,0.8-2.9,1.9-4,3.3c-1.1,1.4-1.9,3.1-2.5,5.1c-0.6,2-0.9,4.2-0.9,6.6s0.3,4.6,0.9,6.5
		c0.6,2,1.5,3.7,2.5,5.1c1.1,1.4,2.4,2.5,4,3.3c1.5,0.8,3.2,1.2,5.1,1.2c1.8,0,3.5-0.4,5.1-1.2c1.5-0.8,2.8-1.9,3.9-3.3
		c1.1-1.4,1.9-3.1,2.5-5.1C379.4,262,379.7,259.9,379.7,257.5z"/>
	<path class="st1" d="M389,255.3c0-2.1,0.4-4.1,1.2-6c0.8-1.8,1.9-3.5,3.3-4.8s3.1-2.5,5-3.3c1.9-0.8,4-1.2,6.2-1.2
		c2.3,0,4.4,0.4,6.3,1.3c1.9,0.8,3.6,2,5,3.6c1.4,1.5,2.5,3.5,3.3,5.7c0.8,2.3,1.2,4.8,1.2,7.6c0,4.7-0.4,8.8-1.2,12.2
		c-0.8,3.4-1.9,6.3-3.3,8.5c-1.4,2.3-3.1,3.9-5.1,5c-2,1.1-4.2,1.6-6.6,1.6c-3,0-5.7-0.8-8-2.3c-2.3-1.5-4.1-3.7-5.2-6.3l2.2-1.7
		c0.8,2.3,2.2,4.1,4.2,5.5c2,1.4,4.2,2.1,6.8,2.1c2,0,3.8-0.5,5.4-1.4c1.6-0.9,3-2.3,4.1-4.1c1.1-1.8,2-4.1,2.7-6.7
		c0.6-2.6,1-5.7,1-9c-0.5,1.3-1.1,2.6-2,3.7c-0.9,1.1-1.9,2.1-3,2.9c-1.2,0.8-2.4,1.4-3.8,1.9c-1.4,0.4-2.8,0.7-4.3,0.7
		c-2.1,0-4.1-0.4-6-1.2c-1.9-0.8-3.5-1.9-4.9-3.3s-2.5-3-3.3-4.8C389.4,259.3,389,257.4,389,255.3z M404.6,242.8
		c-1.7,0-3.3,0.3-4.8,1c-1.5,0.6-2.8,1.5-4,2.7c-1.1,1.1-2,2.4-2.7,4c-0.7,1.5-1,3.1-1,4.8c0,1.7,0.3,3.3,1,4.8
		c0.7,1.5,1.6,2.8,2.7,4c1.1,1.1,2.5,2,4,2.7c1.5,0.7,3.2,1,4.9,1s3.3-0.3,4.9-1c1.5-0.7,2.9-1.6,4-2.7c1.1-1.1,2-2.4,2.7-4
		c0.7-1.5,1-3.1,1-4.8c0-1.7-0.3-3.3-1-4.8c-0.7-1.5-1.6-2.8-2.7-4c-1.2-1.1-2.5-2-4-2.7C408,243.2,406.3,242.8,404.6,242.8z"/>
	<path class="st1" d="M461.7,284v-56.8h2.8V284H461.7z"/>
	<path class="st1" d="M537.6,257.5c0,2.8-0.4,5.3-1.2,7.6c-0.8,2.3-1.9,4.3-3.3,6s-3,3-4.9,4c-1.9,0.9-4,1.4-6.2,1.4
		s-4.3-0.5-6.2-1.4c-1.9-0.9-3.6-2.3-5-4c-1.4-1.7-2.5-3.7-3.3-6c-0.8-2.3-1.2-4.9-1.2-7.6s0.4-5.3,1.2-7.6c0.8-2.3,1.9-4.3,3.3-6
		c1.4-1.7,3.1-3,5-4c1.9-1,4-1.4,6.2-1.4s4.3,0.5,6.2,1.4c1.9,1,3.5,2.3,4.9,4s2.5,3.7,3.3,6C537.2,252.2,537.6,254.7,537.6,257.5z
		 M534.4,257.5c0-2.4-0.3-4.6-0.9-6.6c-0.6-2-1.5-3.7-2.5-5.1c-1.1-1.4-2.4-2.5-3.9-3.3c-1.5-0.8-3.2-1.2-5.1-1.2
		c-1.8,0-3.5,0.4-5.1,1.2c-1.5,0.8-2.9,1.9-4,3.3c-1.1,1.4-1.9,3.1-2.5,5.1c-0.6,2-0.9,4.2-0.9,6.6s0.3,4.6,0.9,6.5
		c0.6,2,1.5,3.7,2.5,5.1c1.1,1.4,2.4,2.5,4,3.3c1.5,0.8,3.2,1.2,5.1,1.2c1.8,0,3.5-0.4,5.1-1.2c1.5-0.8,2.8-1.9,3.9-3.3
		c1.1-1.4,1.9-3.1,2.5-5.1C534.1,262,534.4,259.9,534.4,257.5z"/>
	<path class="st1" d="M544.7,275.9c0-1.2,0.1-2.5,0.3-4c0.2-1.4,0.7-2.9,1.4-4.3c0.7-1.4,1.8-2.9,3.2-4.3c1.4-1.4,3.3-2.7,5.7-3.9
		c1-0.5,2.2-1,3.5-1.6c1.3-0.6,2.6-1.3,3.7-2c1.2-0.8,2.2-1.7,3-2.7c0.8-1,1.2-2.2,1.2-3.6c0-0.9-0.2-1.7-0.6-2.6
		c-0.4-0.9-0.9-1.6-1.7-2.3c-0.7-0.7-1.6-1.2-2.7-1.6c-1.1-0.4-2.4-0.6-3.8-0.6c-1.5,0-2.8,0.2-4,0.6c-1.2,0.4-2.2,0.9-3,1.5
		s-1.6,1.1-2.2,1.7c-0.6,0.6-1,1.1-1.3,1.4l-2.1-2.2c0.5-0.5,1.2-1.2,2-1.9c0.8-0.7,1.8-1.4,2.9-1.9c1.1-0.6,2.3-1.1,3.7-1.5
		c1.4-0.4,2.9-0.6,4.6-0.6c1.8,0,3.5,0.3,4.9,0.8c1.4,0.5,2.7,1.2,3.7,2.2c1,0.9,1.8,2,2.3,3.2s0.8,2.5,0.8,3.8
		c0,1.7-0.4,3.2-1.2,4.4c-0.8,1.2-1.7,2.3-2.9,3.2c-1.2,0.9-2.4,1.6-3.7,2.3s-2.5,1.2-3.7,1.6c-2,0.8-3.6,1.7-4.9,2.6
		c-1.3,0.9-2.3,1.9-3.1,3c-0.8,1-1.3,2.1-1.7,3.3c-0.3,1.1-0.5,2.3-0.6,3.5h22.4v2.9H544.7z"/>
	<path class="st1" d="M612.3,284v-56.8h2.8V284H612.3z"/>
	<path class="st1" d="M677.6,273v2.9h-20.1V273h8.9v-29c-0.3,0.5-0.9,1-1.7,1.6c-0.8,0.6-1.7,1.1-2.7,1.7c-1,0.5-2,1-3,1.3
		c-1,0.4-2,0.5-2.8,0.5V246c1,0,2.2-0.3,3.3-0.8c1.2-0.6,2.3-1.2,3.3-1.9c1-0.7,1.9-1.4,2.5-2c0.7-0.6,1.1-1,1.2-1.2h3.2v33H677.6z"
		/>
	<path class="st1" d="M712.9,263.7c0,1.9-0.4,3.7-1.3,5.2c-0.8,1.5-2,2.9-3.4,4c-1.4,1.1-3.1,2-4.9,2.5c-1.9,0.6-3.8,0.9-5.9,0.9
		c-2.3,0-4.3-0.3-6.2-1c-1.8-0.7-3.4-1.6-4.8-2.8c-1.3-1.2-2.4-2.5-3.1-4.1c-0.7-1.5-1.1-3.2-1.1-5c0-1.5,0.3-2.8,0.8-4.1
		c0.5-1.3,1.3-2.4,2.2-3.4c0.9-1,1.9-1.8,3-2.5s2.3-1.2,3.5-1.6c-1.1-0.4-2.1-0.9-3-1.5s-1.8-1.3-2.5-2.1c-0.7-0.8-1.3-1.7-1.7-2.7
		c-0.4-1-0.6-2.1-0.6-3.2c0-1.8,0.4-3.4,1.2-4.8s1.9-2.5,3.2-3.5c1.3-0.9,2.8-1.7,4.4-2.1c1.6-0.5,3.3-0.7,4.9-0.7s3.3,0.2,4.9,0.7
		c1.6,0.5,3.1,1.2,4.4,2.1c1.3,0.9,2.4,2.1,3.2,3.5c0.8,1.4,1.2,2.9,1.2,4.7c0,1.2-0.2,2.3-0.7,3.2c-0.4,1-1,1.9-1.7,2.7
		c-0.7,0.8-1.6,1.5-2.5,2.2c-1,0.6-2,1.1-3,1.5c1.3,0.5,2.5,1.1,3.7,1.8c1.2,0.7,2.2,1.6,3,2.6c0.9,1,1.5,2.1,2,3.4
		C712.7,260.9,712.9,262.3,712.9,263.7z M709.7,263.4c0-1.6-0.4-3-1.1-4.3c-0.7-1.3-1.7-2.3-2.9-3.2c-1.2-0.9-2.5-1.5-3.9-2
		c-1.4-0.5-2.9-0.7-4.3-0.7c-1.5,0-2.9,0.2-4.3,0.7c-1.4,0.5-2.7,1.2-3.8,2s-2.1,1.9-2.8,3.2s-1.1,2.7-1.1,4.2c0,1.6,0.4,3,1.1,4.2
		c0.7,1.2,1.7,2.3,2.9,3.1c1.2,0.9,2.5,1.5,3.9,2c1.4,0.5,2.9,0.7,4.3,0.7c1.4,0,2.9-0.2,4.3-0.7c1.4-0.5,2.7-1.2,3.9-2
		c1.1-0.9,2.1-1.9,2.8-3.2C709.4,266.4,709.7,265,709.7,263.4z M687.1,242.5c0,1.3,0.3,2.5,1,3.5c0.6,1,1.5,1.9,2.5,2.6
		c1,0.7,2.1,1.2,3.4,1.6c1.2,0.4,2.5,0.5,3.7,0.5c1.2,0,2.4-0.2,3.7-0.6c1.3-0.4,2.4-0.9,3.4-1.6c1-0.7,1.8-1.6,2.5-2.6
		c0.6-1,1-2.2,1-3.5c0-1.3-0.3-2.5-0.9-3.5c-0.6-1-1.4-1.9-2.4-2.6c-1-0.7-2.1-1.2-3.4-1.6c-1.3-0.4-2.6-0.6-3.9-0.6
		c-1.3,0-2.6,0.2-3.9,0.6c-1.3,0.4-2.4,0.9-3.3,1.7c-1,0.7-1.7,1.6-2.3,2.6C687.4,240.1,687.1,241.2,687.1,242.5z"/>
</g>
</svg>
