<svg xmlns="http://www.w3.org/2000/svg" xmlns:xlink="http://www.w3.org/1999/xlink" version="1.1" x="0px" y="0px" viewBox="0 0 100 100" enable-background="new 0 0 100 100" xml:space="preserve"><path d="M50,18c-7.211,0-13.99,2.809-19.089,7.908c-4.985,4.984-7.793,11.404-7.907,18.074  c-0.122,7.143,2.899,14.332,8.291,19.725l17.998,18C49.48,81.895,49.734,82,50,82s0.52-0.105,0.707-0.293l17.998-18  c5.392-5.393,8.413-12.582,8.291-19.725c-0.114-6.67-2.922-13.09-7.907-18.074C63.991,20.809,57.212,18,50,18z M67.291,62.293  L50,79.586L32.709,62.293c-5.01-5.011-7.818-11.673-7.705-18.275c0.104-6.15,2.705-12.079,7.321-16.695  C37.046,22.601,43.323,20,50,20c6.678,0,12.955,2.601,17.675,7.322c4.616,4.616,7.217,10.545,7.321,16.695  C75.109,50.62,72.301,57.282,67.291,62.293z"></path><path d="M50,24c-11.579,0-21,9.421-21,21s9.421,21,21,21s21-9.421,21-21S61.579,24,50,24z M50,64  c-10.477,0-19-8.523-19-19s8.523-19,19-19s19,8.523,19,19S60.477,64,50,64z"></path><path d="M55,33.95c-1.847,0-3.59,0.603-5,1.714c-1.41-1.111-3.153-1.714-5-1.714c-2.169,0-4.196,0.832-5.707,2.343  c-3.147,3.146-3.147,8.268,0,11.414l10,10C49.488,57.902,49.744,58,50,58s0.512-0.098,0.707-0.293l10-10  c3.147-3.146,3.147-8.268,0-11.414C59.196,34.782,57.169,33.95,55,33.95z M59.293,46.293L50,55.586l-9.293-9.293  c-2.327-2.327-2.327-6.259,0-8.586c1.163-1.163,2.729-1.745,4.293-1.745s3.13,0.582,4.293,1.745c0.391,0.391,1.023,0.391,1.414,0  c2.326-2.326,6.26-2.326,8.586,0C61.62,40.034,61.62,43.966,59.293,46.293z"></path></svg>