<svg version="1.1" id="Layer_1" xmlns="http://www.w3.org/2000/svg" xmlns:xlink="http://www.w3.org/1999/xlink" x="0" y="0" viewBox="0 0 100 100" xml:space="preserve" enable-background="new 0 0 100 100"><style type="text/css">.st0{fill:#3f2837}</style><path class="st0" d="M50,0C38.7,0,28.1,4.4,20.2,12.4C12.4,20.1,8,30.2,7.8,40.6c-0.2,11.2,4.5,22.4,13,30.8l28.1,28.1	c0.3,0.3,0.7,0.5,1.1,0.5c0.4,0,0.8-0.2,1.1-0.5l28.1-28.1c8.4-8.4,13.1-19.7,13-30.8C92,30.2,87.6,20.1,79.8,12.4	C71.9,4.4,61.3,0,50,0z M77,69.2l-27,27l-27-27c-7.8-7.8-12.2-18.2-12-28.6c0.2-9.6,4.2-18.9,11.4-26.1C29.8,7.2,39.6,3.1,50,3.1	s20.2,4.1,27.6,11.4c7.2,7.2,11.3,16.5,11.4,26.1C89.2,51,84.8,61.4,77,69.2z"/><path class="st0" d="M50,9.4c-18.1,0-32.8,14.7-32.8,32.8S31.9,75,50,75s32.8-14.7,32.8-32.8S68.1,9.4,50,9.4z M50,71.9	c-16.4,0-29.7-13.3-29.7-29.7S33.6,12.5,50,12.5s29.7,13.3,29.7,29.7S66.4,71.9,50,71.9z"/><g id="XMLID_1_"><g><path class="st0" d="M70.3,38.7v4.9l-15.5-1.4c-0.4,0-0.9,0.1-1.2,0.4c-0.3,0.3-0.5,0.7-0.5,1.2v7.8c0,0.6,0.4,1.2,1,1.4l6.8,2.7 v3.2l-10.6-2.6c-0.1,0-0.2,0-0.4,0s-0.2,0-0.4,0l-10.6,2.6v-3.2l6.8-2.7c0.6-0.2,1-0.8,1-1.4v-7.8c0-0.4-0.2-0.9-0.5-1.2 c-0.3-0.3-0.8-0.4-1.2-0.4l-15.5,1.4v-4.9l16-4.4c0.7-0.2,1.1-0.8,1.1-1.5v-9.4c0-1.7,1.4-3.1,3.1-3.1s3.1,1.4,3.1,3.1v9.4 c0,0.7,0.5,1.3,1.2,1.5L70.3,38.7z"/><path class="st0" d="M73.4,37.5v7.8c0,0.4-0.2,0.9-0.5,1.2c-0.3,0.3-0.8,0.4-1.2,0.4l-15.5-1.4v5l6.8,2.7c0.6,0.2,1,0.8,1,1.4v6.2 c0,0.5-0.2,0.9-0.6,1.2c-0.3,0.2-0.6,0.3-1,0.3c-0.1,0-0.2,0-0.4,0l-12.1-3l-12.1,3c-0.5,0.1-1,0-1.3-0.3 c-0.4-0.3-0.6-0.8-0.6-1.2v-6.2c0-0.6,0.4-1.2,1-1.4l6.8-2.7v-5l-15.5,1.4c-0.5,0-0.9-0.1-1.2-0.4c-0.3-0.3-0.5-0.7-0.5-1.2v-7.8 c0-0.7,0.5-1.3,1.1-1.5l16-4.4v-8.2c0-3.5,2.8-6.2,6.2-6.2s6.2,2.8,6.2,6.2v8.2l16,4.4C73,36.2,73.4,36.8,73.4,37.5z M70.3,43.6 v-4.9l-16-4.4c-0.7-0.2-1.2-0.8-1.2-1.5v-9.4c0-1.7-1.4-3.1-3.1-3.1s-3.1,1.4-3.1,3.1v9.4c0,0.7-0.5,1.3-1.1,1.5l-16,4.4v4.9 l15.5-1.4c0.4,0,0.9,0.1,1.2,0.4c0.3,0.3,0.5,0.7,0.5,1.2v7.8c0,0.6-0.4,1.2-1,1.4l-6.8,2.7v3.2l10.6-2.6c0.1,0,0.2,0,0.4,0 s0.2,0,0.4,0l10.6,2.6v-3.2L54.1,53c-0.6-0.2-1-0.8-1-1.4v-7.8c0-0.4,0.2-0.9,0.5-1.2c0.3-0.3,0.8-0.4,1.2-0.4L70.3,43.6z"/></g></g></svg>