<?xml version="1.0" encoding="utf-8"?>
<!-- Generator: Adobe Illustrator 22.0.1, SVG Export Plug-In . SVG Version: 6.00 Build 0)  -->
<svg version="1.1" id="Layer_1" xmlns="http://www.w3.org/2000/svg" xmlns:xlink="http://www.w3.org/1999/xlink" x="0px" y="0px"
	 viewBox="0 0 100 100" style="enable-background:new 0 0 100 100;" xml:space="preserve">
<style type="text/css">
	.st0{fill:#546783;}
	.st1{fill:#FFFFFF;}
	.st2{fill:#3F2837;}
</style>
<g id="XMLID_3_">
	<g>
		<path class="st0" d="M91.8,40.7C92,51.8,87.3,62.9,79,71.3L51.1,99.2c-0.3,0.3-0.7,0.5-1.1,0.5c-0.4,0-0.8-0.2-1.1-0.5L21,71.3
			c-8.4-8.4-13-19.5-12.9-30.6c0.2-10.3,4.5-20.3,12.3-28C28.3,4.8,38.8,0.4,50,0.4c11.2,0,21.7,4.3,29.6,12.3
			C87.3,20.4,91.7,30.4,91.8,40.7z M76.8,69.1c7.8-7.8,12.1-18.1,12-28.4c-0.2-9.5-4.2-18.7-11.4-25.9C70.1,7.6,60.3,3.5,50,3.5
			c-10.3,0-20.1,4-27.4,11.4C15.4,22,11.4,31.2,11.2,40.8C11,51,15.4,61.3,23.1,69.1L50,95.9L76.8,69.1z"/>
		<path class="st0" d="M88.7,40.8c0.2,10.2-4.2,20.6-12,28.4L50,95.9L23.1,69.1C15.4,61.3,11,51,11.2,40.8
			c0.2-9.5,4.2-18.7,11.3-25.9C29.9,7.6,39.6,3.5,50,3.5c10.4,0,20.1,4,27.4,11.4C84.5,22,88.6,31.2,88.7,40.8z"/>
	</g>
</g>
<g id="XMLID_2_">
	<g>
		<path class="st0" d="M50,9.7c18,0,32.6,14.6,32.6,32.6c0,18-14.6,32.6-32.6,32.6c-18,0-32.6-14.6-32.6-32.6
			C17.4,24.3,32,9.7,50,9.7z M79.4,42.3C79.4,26,66.2,12.8,50,12.8c-16.2,0-29.5,13.2-29.5,29.5S33.7,71.8,50,71.8
			C66.2,71.8,79.4,58.5,79.4,42.3z"/>
		<path class="st1" d="M50,12.8c16.2,0,29.5,13.2,29.5,29.5S66.2,71.8,50,71.8c-16.2,0-29.5-13.2-29.5-29.5S33.7,12.8,50,12.8z"/>
	</g>
</g>
<g id="XMLID_1_">
	<g>
		<path class="st2" d="M64.4,31c3.6,3.6,3.6,9.7,0,13.3L50,58.7L35.6,44.3c-3.6-3.6-3.6-9.7,0-13.3c1.8-1.8,4.2-2.7,6.7-2.7
			s4.9,0.9,6.7,2.7c0.6,0.6,1.6,0.6,2.2,0C54.7,27.4,60.8,27.4,64.4,31z"/>
		<path class="st2" d="M64.4,44.3c3.6-3.6,3.6-9.7,0-13.3c-3.6-3.6-9.7-3.6-13.3,0c-0.6,0.6-1.6,0.6-2.2,0c-1.8-1.8-4.2-2.7-6.7-2.7
			s-4.9,0.9-6.7,2.7c-3.6,3.6-3.6,9.7,0,13.3L50,58.7L64.4,44.3z M66.6,28.8c4.9,4.9,4.9,12.8,0,17.7L51.1,62
			c-0.3,0.3-0.7,0.4-1.1,0.4s-0.8-0.2-1.1-0.4L33.4,46.5c-4.9-4.9-4.9-12.8,0-17.7c2.3-2.3,5.5-3.6,8.9-3.6c2.9,0,5.6,0.9,7.8,2.7
			c2.2-1.7,4.9-2.7,7.8-2.7C61.1,25.2,64.2,26.4,66.6,28.8z"/>
	</g>
</g>
</svg>
